<?xml version="1.0" standalone="no"?>
<!DOCTYPE svg PUBLIC "-//W3C//DTD SVG 20010904//EN"
 "http://www.w3.org/TR/2001/REC-SVG-20010904/DTD/svg10.dtd">
<svg version="1.0" xmlns="http://www.w3.org/2000/svg"
 width="580.000000pt" height="580.000000pt" viewBox="0 0 580.000000 580.000000"
 preserveAspectRatio="xMidYMid meet">
<metadata>
Created by potrace 1.11, written by Peter Selinger 2001-2013
</metadata>
<g transform="translate(0.000000,580.000000) scale(0.100000,-0.100000)"
fill="#000000" stroke="none">
<path d="M1393 5402 l-413 -397 0 -1075 0 -1075 357 -357 358 -358 167 0 167
0 -6 -33 c-4 -26 0 -40 20 -63 24 -27 29 -29 96 -27 39 1 71 0 71 -2 0 -3 -23
-16 -51 -30 -28 -15 -58 -39 -67 -56 l-17 -29 -547 0 -548 0 0 -549 0 -549
415 -401 415 -401 1091 0 1091 0 251 243 c138 133 324 312 413 397 l163 155 0
1030 1 1030 -363 363 -362 362 -308 0 -308 0 -67 44 c-74 48 -151 122 -117
113 41 -12 152 -27 202 -27 29 0 71 -7 93 -16 68 -27 128 3 139 72 l6 39 543
3 542 2 0 598 0 598 -412 397 -413 397 -1095 -1 -1095 0 -412 -397z m2943 -73
l384 -371 0 -529 0 -529 -566 0 -566 0 35 -41 c41 -47 49 -72 33 -95 -11 -14
-18 -15 -47 -6 -19 7 -86 16 -149 22 -72 7 -141 20 -185 36 -95 34 -99 34
-103 2 -8 -69 100 -192 248 -281 l95 -57 270 0 270 0 332 -332 333 -333 0
-986 0 -986 -387 -371 -387 -372 -1045 0 -1046 0 -387 373 -388 372 0 478 0
477 567 0 567 0 -38 35 c-21 19 -36 40 -34 47 9 26 56 48 132 63 90 17 151 49
195 102 32 39 40 83 19 100 -32 25 -63 22 -139 -12 -85 -39 -232 -66 -250 -48
-13 13 21 96 53 130 l21 23 -214 0 -214 0 -332 332 -333 333 0 1027 0 1026
385 371 385 371 1051 0 1051 0 384 -371z"/>
<path d="M1533 5262 l-352 -337 -1 -995 0 -995 298 -298 298 -298 304 3 c295
3 307 4 351 26 56 28 71 53 73 123 l1 53 -55 1 c-30 1 -88 5 -128 10 -52 6
-84 4 -112 -5 -22 -7 -43 -10 -47 -7 -13 14 32 90 77 130 26 23 71 55 101 71
96 51 247 156 269 186 46 64 51 140 10 140 -11 0 -44 -14 -74 -30 -30 -17 -76
-33 -104 -37 -65 -7 -162 5 -162 21 0 23 75 84 150 121 41 20 90 48 108 62 56
42 97 153 56 153 -9 0 -41 -14 -71 -31 -45 -26 -70 -32 -153 -39 -113 -10
-148 -25 -202 -83 -43 -47 -68 -45 -68 5 0 54 36 211 58 254 30 57 94 113 206
180 106 63 202 147 231 204 20 39 24 105 6 123 -8 8 -18 5 -38 -11 -61 -50
-113 -65 -238 -74 -66 -4 -136 -9 -155 -10 -29 -3 -35 0 -38 19 -8 57 187 206
439 335 98 49 149 93 149 128 0 30 -26 43 -72 36 -24 -4 -82 -9 -130 -12 -76
-5 -89 -4 -94 11 -10 26 33 63 133 110 98 47 127 75 121 122 -3 27 -6 28 -67
33 -37 3 -66 10 -68 17 -11 32 159 163 212 163 7 0 19 7 26 16 11 14 10 18 -6
30 -10 8 -36 14 -58 14 -40 0 -77 14 -77 30 0 5 37 36 83 69 46 33 88 71 94
84 11 23 7 28 -35 66 -48 44 -47 60 5 61 32 0 50 34 75 136 12 49 25 93 29 98
4 5 15 -29 25 -74 20 -91 43 -130 79 -130 38 0 40 -19 6 -54 -49 -50 -38 -81
33 -93 20 -3 39 -10 42 -15 4 -6 -13 -30 -37 -54 -38 -39 -41 -46 -31 -68 6
-13 43 -49 81 -80 39 -31 71 -63 71 -71 0 -8 -18 -26 -40 -40 -48 -30 -51 -48
-9 -65 17 -7 58 -39 92 -71 53 -50 59 -60 47 -74 -11 -13 -24 -15 -66 -9 -46
5 -53 4 -63 -15 -15 -27 -5 -64 22 -89 12 -11 60 -36 107 -57 97 -42 146 -75
156 -107 12 -39 -18 -49 -126 -42 -100 6 -150 -4 -150 -30 0 -22 44 -53 103
-72 68 -22 119 -48 189 -95 l58 -39 570 0 570 0 0 463 0 462 -352 338 -352
337 -1015 0 -1016 0 -352 -338z"/>
<path d="M3635 3363 c50 -131 65 -222 40 -243 -15 -12 -23 -12 -64 4 -25 10
-98 37 -161 61 -63 23 -136 51 -161 60 -81 32 -125 1 -96 -67 26 -61 63 -93
173 -147 69 -35 125 -71 158 -103 45 -44 49 -50 34 -64 -12 -12 -23 -14 -51
-6 -23 7 -60 6 -109 -1 -69 -9 -77 -8 -139 17 -70 28 -109 33 -109 14 0 -6 11
-30 25 -53 26 -45 134 -125 275 -204 41 -23 94 -61 117 -83 50 -49 104 -154
111 -216 5 -43 4 -44 -19 -37 -13 4 -35 16 -48 26 -17 13 -40 19 -80 19 -78 0
-123 15 -172 56 -50 41 -69 33 -69 -28 0 -65 24 -94 110 -129 116 -48 186 -86
226 -121 37 -32 88 -124 78 -140 -8 -13 -104 -9 -161 6 -28 8 -77 25 -108 40
-32 14 -68 26 -81 26 -24 0 -64 -31 -64 -50 0 -40 76 -121 137 -146 18 -8 68
-21 110 -29 78 -15 123 -42 123 -75 0 -9 -16 -39 -35 -66 -50 -69 -40 -106 38
-146 77 -39 134 -103 167 -189 38 -98 61 -197 54 -226 -13 -49 -46 -38 -212
69 -148 96 -183 107 -337 108 -120 0 -133 2 -170 25 -76 46 -84 50 -98 36 -9
-9 -12 -90 -12 -319 0 -291 1 -311 23 -379 29 -92 81 -158 169 -213 37 -23 97
-71 133 -105 112 -107 222 -145 419 -145 l116 1 353 340 352 340 0 947 0 947
-303 303 -302 302 -194 0 c-180 0 -193 -1 -186 -17z"/>
<path d="M1180 1292 l0 -408 355 -342 355 -342 123 0 c239 0 317 43 450 250
19 30 77 96 127 145 50 50 100 106 110 125 33 64 41 177 38 530 -3 386 3 368
-100 279 -74 -65 -110 -78 -226 -88 -66 -6 -118 -17 -161 -35 -82 -33 -198
-105 -242 -150 -91 -94 -118 13 -49 193 40 104 86 156 180 205 39 21 70 39 70
42 0 2 -232 4 -515 4 l-515 0 0 -408z"/>
</g>
</svg>
