<?xml version="1.0" standalone="no"?>
<!DOCTYPE svg PUBLIC "-//W3C//DTD SVG 20010904//EN"
 "http://www.w3.org/TR/2001/REC-SVG-20010904/DTD/svg10.dtd">
<svg version="1.0" xmlns="http://www.w3.org/2000/svg"
 width="589.000000pt" height="589.000000pt" viewBox="0 0 589.000000 589.000000"
 preserveAspectRatio="xMidYMid meet">
<metadata>
Created by potrace 1.11, written by Peter Selinger 2001-2013
</metadata>
<g transform="translate(0.000000,589.000000) scale(0.100000,-0.100000)"
fill="#000000" stroke="none">
<path d="M1423 5452 l-413 -397 0 -1075 0 -1075 358 -357 357 -358 165 -2 165
-3 -3 -24 c-10 -72 37 -107 130 -97 32 4 58 3 58 -1 0 -5 -25 -21 -55 -36 -35
-17 -60 -37 -70 -57 l-16 -30 -544 0 -545 0 0 -548 0 -548 412 -397 413 -397
1093 0 1093 0 414 398 413 397 1 1025 1 1025 -363 363 -362 362 -306 0 -306 0
-64 41 c-61 39 -139 106 -139 119 0 4 30 1 68 -6 37 -7 92 -13 123 -14 31 0
79 -7 107 -16 83 -27 136 0 148 77 l7 41 543 -4 544 -3 0 596 0 597 -417 401
-417 401 -1091 -1 -1090 0 -412 -397z m2940 -73 l387 -372 0 -528 0 -529 -546
0 -546 0 31 -39 c45 -57 50 -93 17 -126 -21 -21 -33 -26 -54 -20 -15 3 -58 10
-97 16 -184 24 -219 30 -270 47 -30 11 -55 16 -55 11 0 -4 20 -34 45 -67 51
-67 94 -102 233 -186 l93 -56 237 0 237 0 337 -337 338 -338 -1 -985 -1 -985
-381 -367 -382 -367 -1056 -1 -1055 0 -387 372 -387 373 0 477 0 478 543 0
c345 0 536 4 526 10 -9 5 -22 23 -29 40 -24 57 25 99 140 120 36 6 81 18 100
26 45 19 110 82 110 107 0 16 -5 18 -32 14 -18 -2 -61 -17 -96 -31 -34 -15
-100 -32 -146 -38 -75 -10 -87 -9 -110 6 -33 21 -33 37 4 114 l29 62 -182 0
-182 0 -337 337 -338 338 0 1025 0 1025 388 372 387 372 1051 1 1051 0 386
-371z"/>
<path d="M1563 5312 l-352 -337 0 -995 -1 -995 297 -297 298 -298 255 0 255 0
81 36 c81 36 104 59 104 103 0 14 -16 19 -89 30 -82 13 -107 12 -203 -5 -34
-5 -39 -3 -49 20 -10 21 -9 33 7 68 24 55 105 135 175 172 170 90 299 197 299
248 0 14 -10 11 -62 -15 -59 -30 -69 -32 -170 -31 -117 0 -138 9 -138 53 0 40
80 113 165 152 86 38 130 71 150 110 9 16 14 29 12 29 -3 0 -25 -11 -50 -25
-34 -20 -68 -28 -139 -34 -115 -11 -137 -19 -192 -76 -50 -51 -85 -58 -110
-23 -19 27 -20 60 -2 158 33 180 85 252 255 355 157 94 228 164 247 239 l7 29
-34 -26 c-46 -35 -140 -57 -240 -57 -45 0 -97 -5 -114 -11 -65 -24 -116 16
-101 78 17 66 210 214 437 332 121 64 160 94 143 111 -7 7 -25 5 -53 -5 -59
-20 -189 -20 -219 1 -55 38 -9 105 116 166 96 46 122 64 122 85 0 9 -15 13
-50 13 -49 0 -90 23 -90 50 0 42 88 133 163 168 l42 20 -37 7 c-20 4 -45 16
-54 26 -29 32 -8 66 74 125 104 73 101 67 54 118 -23 25 -42 48 -42 51 0 22
25 45 54 51 40 7 51 29 81 152 14 58 23 76 41 84 38 18 49 4 68 -83 21 -98 31
-119 54 -119 28 0 62 -29 62 -54 0 -12 -14 -35 -30 -51 -33 -31 -27 -45 21
-45 30 0 59 -28 59 -56 0 -11 -16 -35 -35 -54 -19 -19 -35 -40 -35 -46 0 -7
27 -33 60 -59 98 -75 113 -114 60 -158 l-30 -26 33 -20 c47 -29 115 -102 122
-131 10 -40 -25 -66 -87 -63 -46 2 -49 1 -46 -20 2 -17 28 -34 118 -78 149
-72 192 -120 160 -179 -16 -30 -64 -40 -168 -34 -110 5 -116 12 53 -66 44 -20
110 -58 148 -84 l67 -46 545 0 545 0 0 458 0 458 -356 342 -356 342 -1011 0
-1012 0 -352 -338z"/>
<path d="M3704 3398 c54 -186 57 -228 19 -258 -32 -25 -66 -22 -147 15 -62 28
-300 115 -314 115 -23 0 -20 -19 7 -62 25 -40 44 -53 137 -99 184 -91 258
-181 192 -232 -24 -18 -32 -19 -65 -9 -27 8 -54 8 -102 0 -64 -11 -112 -3
-189 29 -11 4 -11 1 0 -17 15 -26 167 -129 251 -172 117 -59 203 -165 242
-301 16 -54 16 -60 0 -84 -14 -21 -22 -24 -48 -19 -18 3 -43 14 -57 25 -17 12
-51 20 -101 24 -74 5 -125 22 -161 55 -16 14 -18 13 -18 -5 0 -37 33 -63 136
-107 123 -53 168 -81 215 -133 45 -50 75 -133 59 -162 -9 -18 -20 -21 -78 -21
-77 0 -143 16 -230 55 -86 38 -118 21 -71 -39 33 -42 99 -74 182 -90 91 -18
132 -39 148 -78 15 -36 5 -74 -32 -120 -17 -21 -26 -43 -23 -52 3 -9 32 -31
63 -51 102 -62 143 -115 186 -245 48 -142 52 -212 15 -242 -41 -33 -54 -28
-285 117 -104 66 -139 75 -281 75 -116 0 -125 1 -179 30 l-56 30 3 -333 3
-332 26 -55 c36 -77 71 -114 148 -159 36 -22 92 -66 125 -99 42 -43 81 -71
140 -98 l81 -39 150 -3 150 -3 353 342 352 341 0 941 0 942 -303 303 -302 302
-174 0 -173 0 6 -22z"/>
<path d="M1210 1333 l0 -408 353 -338 352 -339 155 4 c135 3 160 7 196 25 66
35 98 67 164 165 35 51 109 140 165 198 72 73 107 117 116 145 9 29 14 146 16
419 l4 379 -52 -46 c-65 -57 -115 -75 -244 -87 -91 -9 -110 -15 -202 -60 -62
-31 -126 -72 -163 -106 -71 -63 -106 -70 -139 -28 -31 40 -27 102 15 227 41
120 75 167 158 223 l51 34 -473 0 -472 0 0 -407z"/>
</g>
</svg>
